<?xml version="1.0" standalone="no"?>
<!DOCTYPE svg PUBLIC "-//W3C//DTD SVG 20010904//EN"
 "http://www.w3.org/TR/2001/REC-SVG-20010904/DTD/svg10.dtd">
<svg version="1.0" xmlns="http://www.w3.org/2000/svg"
 width="1715.000000pt" height="1715.000000pt" viewBox="0 0 1715.000000 1715.000000"
 preserveAspectRatio="xMidYMid meet">
<metadata>
Created by potrace 1.14, written by Peter Selinger 2001-2017
</metadata>
<g transform="translate(0.000000,1715.000000) scale(0.100000,-0.100000)"
fill="#000000" stroke="none">
<path d="M8530 14719 c-72 -14 -75 -16 -55 -39 18 -20 17 -20 -61 -21 -43 0
-101 -5 -129 -10 -27 -6 -135 -14 -240 -20 -104 -5 -194 -14 -199 -19 -6 -6
-34 -10 -62 -10 -29 0 -56 -4 -59 -10 -3 -5 -39 -10 -79 -10 -39 0 -77 -5 -83
-11 -6 -6 -50 -14 -97 -16 -48 -3 -89 -10 -92 -14 -3 -5 -16 -9 -29 -9 -13 0
-27 -4 -30 -10 -3 -5 -28 -10 -56 -10 -27 0 -49 -4 -49 -10 0 -5 -15 -10 -33
-10 -18 0 -37 -4 -43 -10 -5 -5 -39 -13 -74 -16 -38 -4 -76 -15 -92 -25 -15
-11 -43 -19 -66 -19 -23 0 -44 -4 -47 -10 -3 -5 -28 -12 -56 -16 -27 -4 -52
-11 -55 -15 -3 -5 -16 -9 -29 -9 -13 0 -27 -4 -30 -10 -3 -5 -15 -10 -26 -10
-10 0 -19 -4 -19 -10 0 -5 -17 -10 -38 -10 -21 0 -47 -7 -58 -15 -10 -8 -32
-15 -49 -15 -16 0 -41 -9 -55 -20 -14 -11 -32 -20 -41 -20 -9 0 -30 -7 -45
-15 -16 -8 -37 -15 -46 -15 -9 0 -20 -4 -23 -10 -3 -5 -16 -10 -28 -10 -12 0
-33 -9 -47 -20 -14 -11 -34 -20 -46 -20 -11 0 -29 -7 -40 -15 -10 -8 -27 -15
-37 -15 -10 0 -35 -11 -55 -25 -20 -14 -43 -25 -52 -25 -8 0 -30 -9 -48 -20
-18 -11 -41 -20 -51 -20 -10 0 -26 -9 -35 -19 -10 -11 -32 -23 -50 -27 -17 -3
-35 -10 -41 -14 -18 -15 -120 -71 -137 -77 -10 -3 -18 -9 -18 -14 0 -5 -7 -9
-15 -9 -9 0 -33 -11 -55 -25 -22 -14 -45 -25 -52 -25 -7 0 -24 -9 -38 -20 -14
-11 -32 -20 -41 -20 -9 0 -19 -7 -23 -15 -3 -8 -11 -15 -18 -15 -7 -1 -29 -14
-48 -30 -19 -17 -42 -30 -52 -30 -10 0 -21 -7 -24 -15 -4 -8 -14 -15 -24 -15
-9 0 -25 -9 -35 -20 -10 -11 -22 -20 -26 -20 -9 0 -231 -151 -304 -207 -27
-21 -69 -50 -92 -65 -24 -15 -43 -31 -43 -36 0 -5 -38 -37 -85 -71 -47 -35
-85 -67 -85 -72 0 -5 -4 -9 -9 -9 -9 0 -63 -43 -114 -92 -16 -16 -30 -28 -32
-28 -5 0 -14 -9 -160 -145 -139 -129 -203 -193 -295 -296 -41 -45 -92 -101
-114 -123 -56 -59 -286 -343 -286 -354 0 -5 -22 -37 -50 -71 -27 -34 -50 -67
-50 -72 0 -5 -21 -36 -47 -68 -27 -32 -57 -73 -68 -92 -11 -19 -27 -46 -36
-61 -9 -15 -27 -42 -41 -60 -13 -18 -35 -54 -47 -80 -13 -27 -27 -50 -32 -54
-5 -3 -16 -20 -24 -37 -8 -18 -24 -45 -35 -62 -24 -37 -70 -130 -70 -143 0 -5
-6 -15 -14 -21 -21 -18 -200 -389 -250 -521 -20 -52 -41 -104 -46 -115 -33
-74 -49 -114 -55 -140 -7 -31 -29 -87 -45 -117 -6 -10 -10 -26 -10 -35 0 -10
-7 -31 -15 -47 -8 -15 -15 -35 -15 -43 0 -8 -6 -29 -14 -46 -13 -30 -20 -53
-50 -173 -8 -28 -18 -60 -25 -72 -6 -11 -11 -36 -11 -54 -1 -18 -7 -44 -15
-58 -8 -14 -14 -37 -15 -52 0 -15 -4 -30 -10 -33 -5 -3 -10 -21 -10 -38 0 -42
-19 -107 -30 -107 -6 0 -10 -11 -10 -25 0 -15 -6 -25 -15 -25 -8 0 -17 -12
-20 -27 -3 -16 -10 -48 -16 -73 -5 -25 -12 -74 -15 -110 -3 -36 -11 -103 -19
-150 -38 -228 -59 -652 -45 -904 17 -282 29 -400 46 -446 9 -26 17 -80 18
-130 1 -62 6 -92 19 -110 9 -13 17 -34 17 -46 0 -12 6 -27 14 -33 11 -9 12
-19 5 -41 -7 -20 -7 -35 0 -49 6 -11 10 -24 9 -30 -2 -5 1 -9 6 -9 15 0 26
-25 26 -59 0 -31 20 -105 40 -148 5 -11 14 -47 20 -80 5 -33 19 -91 30 -130
10 -38 24 -90 31 -115 7 -25 18 -59 25 -77 8 -17 14 -38 14 -47 0 -9 4 -24 10
-34 15 -27 35 -82 55 -147 10 -33 22 -64 27 -69 4 -6 8 -18 8 -28 0 -10 4 -26
10 -36 17 -31 50 -111 50 -122 0 -5 4 -18 9 -28 5 -9 21 -46 36 -82 68 -165
290 -612 330 -665 14 -17 25 -36 25 -40 0 -5 6 -16 14 -24 7 -9 28 -43 45 -75
18 -32 41 -71 52 -85 34 -44 68 -95 81 -121 7 -14 37 -57 68 -96 30 -39 64
-86 75 -105 11 -18 25 -42 32 -52 6 -11 15 -22 20 -26 4 -3 14 -17 22 -31 22
-38 212 -270 222 -270 5 0 9 -5 9 -10 0 -6 33 -43 73 -83 39 -40 104 -108 142
-151 39 -44 106 -113 149 -155 43 -42 106 -102 139 -134 33 -32 90 -81 126
-110 67 -53 136 -114 176 -155 12 -12 27 -22 34 -22 6 0 11 -3 11 -8 0 -4 27
-27 60 -51 33 -24 60 -48 60 -52 0 -5 7 -9 15 -9 8 0 15 -4 15 -10 0 -5 7 -10
15 -10 9 0 18 -7 21 -15 4 -8 28 -29 55 -47 27 -17 49 -35 49 -40 0 -4 7 -8
15 -8 8 0 15 -4 15 -10 0 -5 6 -10 14 -10 21 0 40 -27 24 -33 -7 -3 2 -6 20
-6 21 -1 32 -6 32 -15 0 -8 10 -16 23 -18 14 -2 22 -10 22 -23 0 -16 6 -19 28
-17 22 2 27 -1 27 -18 0 -17 5 -20 28 -18 21 2 27 -1 27 -17 0 -14 7 -20 24
-21 14 -1 30 -9 37 -19 7 -9 16 -15 21 -12 4 3 17 -1 28 -9 10 -8 13 -14 6
-14 -7 0 -9 -5 -6 -10 4 -6 14 -10 23 -9 28 2 62 -13 55 -24 -3 -5 -1 -7 4 -4
6 4 23 1 38 -7 17 -9 22 -16 13 -19 -7 -3 4 -6 24 -6 26 -1 42 -7 50 -21 7
-11 20 -20 30 -20 20 0 36 -20 16 -20 -8 -1 -6 -6 6 -15 13 -10 23 -12 30 -5
15 15 30 12 57 -11 13 -11 36 -23 51 -26 15 -3 33 -12 39 -19 6 -8 19 -14 28
-14 22 0 71 -23 71 -32 0 -5 9 -8 20 -8 11 0 20 -4 20 -9 0 -5 16 -12 35 -15
19 -4 35 -11 35 -16 0 -6 10 -10 23 -10 12 0 27 -8 34 -19 7 -11 28 -20 54
-24 24 -3 45 -11 47 -16 2 -6 17 -11 33 -11 16 0 29 -3 29 -8 0 -9 75 -42 98
-42 9 0 28 -9 42 -20 14 -11 39 -20 55 -20 17 0 39 -7 49 -15 11 -8 32 -15 47
-15 15 0 31 -5 34 -10 3 -6 17 -10 30 -10 13 0 26 -4 29 -9 4 -5 25 -12 49
-16 23 -4 54 -16 69 -26 14 -11 39 -19 55 -19 16 0 47 -8 69 -19 21 -10 62
-21 90 -24 28 -3 68 -15 88 -26 23 -13 55 -21 84 -21 27 0 53 -5 59 -11 5 -5
37 -12 69 -15 55 -5 82 -13 126 -35 10 -5 42 -9 72 -9 30 0 57 -4 60 -9 3 -5
44 -12 91 -16 47 -4 87 -11 91 -16 3 -5 38 -9 79 -9 41 0 77 -4 80 -10 3 -5
24 -10 46 -10 21 0 39 -4 39 -10 0 -6 48 -10 124 -10 73 0 127 -4 131 -10 4
-6 64 -10 146 -10 77 0 149 -4 159 -10 10 -5 43 -11 72 -12 29 -1 57 -4 63 -7
18 -10 80 1 88 15 6 11 43 14 182 14 105 0 176 4 180 10 4 6 58 10 130 10 72
0 126 4 130 10 3 6 24 10 46 10 21 0 39 4 39 8 0 5 45 12 100 15 55 3 108 11
119 17 11 5 42 10 70 10 28 0 51 5 51 10 0 6 25 10 56 10 38 0 64 6 82 19 18
12 53 20 101 24 41 3 79 11 85 17 5 5 31 10 58 10 29 0 61 8 83 20 19 11 54
22 78 26 40 5 69 15 109 35 10 5 34 9 54 9 20 0 48 9 64 20 15 10 46 22 69 26
23 4 44 11 47 15 3 5 16 9 29 9 13 0 27 4 30 10 3 5 19 10 34 10 16 0 34 7 41
15 7 8 24 15 39 15 14 0 37 9 51 20 14 11 39 20 57 20 17 0 33 3 35 8 5 11 64
42 82 42 8 0 31 9 51 20 20 11 44 20 55 20 10 0 22 4 25 10 3 5 23 17 43 26
20 9 57 25 82 36 25 11 58 26 73 34 16 8 34 14 40 14 7 0 18 9 25 20 7 11 22
20 35 20 12 0 39 11 59 25 20 14 43 25 50 25 7 0 24 9 38 20 14 11 30 20 36
20 6 0 17 7 24 15 7 8 21 15 31 15 11 0 19 5 19 10 0 6 7 10 15 10 8 0 15 4
15 9 0 5 13 12 29 16 16 3 37 15 47 26 9 10 25 19 36 19 10 0 18 5 18 11 0 5
20 19 44 30 24 10 46 26 50 34 3 8 15 15 26 15 11 0 23 7 26 15 4 8 14 15 24
15 9 0 25 9 35 20 10 11 22 20 27 20 13 0 108 71 108 81 0 5 7 9 15 9 18 0
105 62 167 120 24 22 51 40 61 40 9 0 17 5 17 10 0 6 8 14 17 17 10 4 28 20
41 35 13 15 29 28 34 28 12 0 86 58 129 100 30 29 101 90 105 90 2 0 14 10 27
23 13 12 77 72 142 132 145 136 255 246 255 257 0 4 7 8 15 8 8 0 15 5 15 11
0 7 10 22 23 34 98 97 397 455 397 476 0 6 25 41 55 78 30 38 55 72 55 76 0 4
16 27 35 51 19 23 35 48 35 54 0 7 10 25 23 40 12 15 31 42 42 61 11 18 25 40
30 49 6 8 23 38 39 65 16 28 37 59 46 70 9 11 23 36 30 55 7 19 21 44 31 55 9
11 28 41 41 67 12 26 51 105 86 175 35 70 67 135 73 143 5 8 14 26 19 40 13
31 19 45 64 143 20 43 36 80 36 83 0 3 6 20 14 37 8 18 24 59 37 92 13 33 27
64 31 69 4 6 8 18 8 28 0 10 6 29 14 41 7 12 19 45 26 72 12 50 32 104 50 137
6 10 10 25 10 34 0 9 6 30 14 47 15 36 33 99 48 172 6 28 17 64 24 82 8 17 14
40 14 51 0 11 7 33 15 48 8 16 15 46 15 68 0 33 2 37 15 26 13 -11 15 -5 15
41 0 37 3 49 10 39 5 -8 11 -12 14 -9 9 9 64 287 76 384 6 50 17 135 25 190
48 335 48 904 0 1300 -46 371 -73 511 -148 768 -14 47 -27 48 -27 2 0 -19 -4
-35 -10 -35 -5 0 -10 9 -10 19 0 11 -4 22 -9 25 -5 3 -14 35 -21 71 -7 36 -16
68 -21 71 -5 3 -9 17 -9 32 -1 15 -7 38 -15 52 -8 14 -15 34 -15 45 0 11 -9
38 -20 60 -11 22 -19 50 -20 63 0 12 -4 30 -10 40 -20 37 -50 112 -50 127 0 8
-4 23 -10 33 -17 32 -50 111 -50 122 0 12 -35 96 -50 120 -13 21 -50 98 -50
105 0 7 -59 131 -128 270 -48 98 -86 169 -136 257 -9 16 -23 41 -31 57 -9 16
-22 34 -30 41 -8 7 -15 17 -15 23 0 6 -11 27 -23 46 -13 20 -32 49 -43 65 -22
34 -55 88 -80 131 -9 17 -31 48 -49 70 -18 22 -34 47 -38 55 -3 8 -64 88 -136
177 -72 89 -131 167 -131 173 0 6 -6 13 -14 16 -8 3 -53 55 -101 115 -47 61
-112 137 -143 171 -129 136 -212 218 -222 218 -5 0 -10 4 -10 8 0 10 -154 172
-163 172 -3 0 -27 20 -52 45 -47 44 -51 65 -14 65 10 0 19 3 19 7 0 12 -125
128 -235 218 -542 442 -1214 800 -1975 1053 -135 45 -385 110 -550 142 -30 6
-77 18 -105 27 -27 8 -83 19 -125 23 -105 11 -215 29 -280 45 -158 39 -847 85
-960 64z m2640 -1139 c411 -32 696 -147 841 -340 87 -115 173 -327 223 -550
85 -380 98 -797 40 -1235 -26 -190 -33 -203 -239 -440 -409 -472 -870 -1060
-1240 -1582 -71 -101 -134 -183 -140 -183 -36 0 -42 23 -59 245 -47 615 -66
1097 -71 1771 -3 442 -5 515 -19 542 -34 65 -119 98 -226 88 -640 -63 -1544
-205 -2230 -352 -192 -41 -232 -52 -225 -65 4 -5 -8 -9 -24 -9 l-31 0 0 69 c0
59 3 69 19 74 10 2 24 19 32 36 8 17 22 34 31 37 9 2 33 23 52 44 20 22 40 40
45 40 5 0 11 7 15 15 3 8 12 15 21 15 9 0 15 9 15 21 0 17 4 20 23 15 21 -5
52 25 238 226 437 473 1113 1142 1231 1218 148 96 814 261 1206 299 123 12
326 12 472 1z m-1370 -2146 c0 -16 -51 -82 -231 -295 -1092 -1302 -2082 -2769
-2819 -4179 -470 -899 -634 -1236 -885 -1825 -200 -467 -475 -1168 -475 -1208
0 -8 -9 -26 -21 -41 l-21 -27 -146 3 -147 3 -3 26 c-7 60 346 1400 557 2114
81 275 217 711 270 866 l29 87 -24 93 c-88 343 -256 1318 -288 1666 l-6 61
192 274 c105 150 270 381 366 513 96 132 177 251 180 265 5 29 30 60 47 60 7
0 16 16 19 35 4 19 14 40 24 47 19 15 37 41 52 76 5 12 14 22 20 22 5 0 10 6
10 14 0 16 177 236 191 236 5 0 9 5 9 10 0 18 43 70 57 70 7 0 13 8 13 19 0
10 7 24 15 31 8 7 15 18 15 25 0 7 7 15 15 19 8 3 15 11 15 18 1 15 45 68 57
68 4 0 19 16 33 35 14 19 31 35 38 35 6 0 12 9 12 20 0 11 7 20 15 20 8 0 15
7 15 15 0 8 8 15 18 15 17 0 52 50 52 76 0 8 8 14 17 14 17 0 53 27 53 41 0
14 104 116 145 143 60 39 573 159 1160 272 361 70 1157 198 1280 206 41 3 75
-14 75 -38z m352 -271 c13 -15 16 -69 22 -303 9 -439 51 -1178 106 -1875 11
-137 20 -260 20 -271 0 -12 -84 -160 -187 -330 -404 -668 -776 -1307 -914
-1570 -46 -86 -83 -144 -105 -162 -24 -20 -84 -43 -211 -81 -528 -159 -1332
-442 -1966 -692 -153 -61 -286 -109 -295 -107 -20 4 -29 53 -12 72 6 8 79 153
164 322 866 1745 1922 3348 3174 4814 68 80 134 157 147 173 27 32 36 33 57
10z m-4465 -3205 c-3 -8 -6 -5 -6 6 -1 11 2 17 5 13 3 -3 4 -12 1 -19z m2431
-2045 c2 -23 -22 -82 -93 -224 -54 -107 -107 -205 -119 -218 -11 -12 -78 -52
-149 -87 -165 -83 -764 -369 -887 -423 -101 -45 -225 -106 -510 -251 -96 -49
-184 -90 -195 -92 -47 -7 -24 72 113 392 89 210 108 248 136 278 47 53 543
261 1021 431 381 135 659 229 670 227 6 -2 11 -16 13 -33z"/>
<path d="M12770 13120 c0 -5 5 -10 10 -10 6 0 10 5 10 10 0 6 -4 10 -10 10 -5
0 -10 -4 -10 -10z"/>
<path d="M12840 13060 c0 -13 41 -60 52 -60 16 0 8 27 -15 48 -25 24 -37 28
-37 12z"/>
<path d="M14619 10235 c-2 -34 2 -54 17 -83 7 -15 14 -34 14 -43 0 -8 7 -24
16 -35 15 -18 15 -18 10 6 -4 14 -11 46 -16 73 -5 26 -16 60 -24 75 -13 23
-15 24 -17 7z"/>
</g>
</svg>
